<?xml version="1.0" encoding="utf-8" ?>
<svg xmlns="http://www.w3.org/2000/svg" xmlns:xlink="http://www.w3.org/1999/xlink" width="1024" height="1024">
	<path fill="#54BAB9" transform="scale(2 2)" d="M255.651 133.932C247.31 131.606 251.009 114.227 251.007 105.861L251.009 85.0448C251.011 79.9596 249.085 69.9977 254.836 68.5349C256.57 68.6225 258.168 69.08 258.814 70.8975C259.583 73.0627 259.439 122.971 259.195 128.858C259.073 131.819 258.598 132.936 255.651 133.932Z"/>
	<path fill="#54BAB9" transform="scale(2 2)" d="M319.78 147.179C316.857 147.527 313.653 145.01 315.026 141.862C316.382 138.755 319.331 135.784 321.454 133.147L344.767 103.991C347.186 100.901 349.486 96.2618 353.317 94.7722C356.34 94.2682 359.523 95.9295 358.345 99.5461C357.631 101.739 353.317 106.128 351.733 108.137L327.907 138.069C325.635 140.926 323.246 145.679 319.78 147.179Z"/>
	<path fill="#54BAB9" transform="scale(2 2)" d="M192.033 147.179C187.892 147.747 185.254 142.658 182.876 139.926C177.531 133.787 172.41 127.461 167.213 121.198L156.153 107.958C152.934 104.057 145.985 98.721 152.481 94.7722C157.734 94.3318 163.977 104.704 167.425 108.83L184.824 129.615C188.867 134.543 200.293 142.977 192.033 147.179Z"/>
	<defs>
		<linearGradient id="gradient_0" gradientUnits="userSpaceOnUse" x1="164.12805" y1="436.59506" x2="337.21194" y2="176.45592">
			<stop offset="0" stop-color="#9ED2C6"/>
			<stop offset="1" stop-color="#54BAB9"/>
		</linearGradient>
	</defs>
	<path fill="url(#gradient_0)" transform="scale(2 2)" d="M181.368 193.26C181.257 168.684 182.737 164.475 207.846 164.482L313.02 164.49C326.115 163.576 330.798 172.226 330.798 183.991L330.779 193.26C342.915 194.841 357.797 189.718 369.3 197.941C386.191 210.014 380.318 230.987 369.888 245.352C358.419 261.15 344.139 269.555 324.956 272.575C314.621 294.925 299.973 308.388 276.223 316.383L276.223 374.284C281.757 374.285 309.33 373.665 312.731 374.736C315.036 377.122 313.922 393.891 313.923 397.521L313.917 434.08C323.034 434.263 332.17 433.851 341.286 434.08C344.141 436.646 345.4 441.968 340.022 442.359C335.664 442.677 331.034 442.289 326.641 442.287L200.375 442.285L181.956 442.308C178.831 442.322 175.266 442.664 172.194 442.191C168.968 441.694 167.582 437.898 169.997 435.482C172.441 433.037 178.263 434.092 181.367 434.096L198.866 434.08C198.735 428.73 198.113 376.659 199.528 375.309C201.351 373.571 231.7 374.28 236.122 374.284L236.122 316.383C211.496 305.763 198.989 298.165 186.754 271.715C154.314 270.859 116.142 225.182 139.92 201.298C147.858 193.325 156.403 193.227 166.843 193.237L181.368 193.26ZM196.529 172.732C187.826 173.731 189.957 184.461 189.961 190.785L189.971 235.327C189.969 241.912 189.729 248.531 190.792 255.055C199.077 305.918 260.953 328.56 299.547 294.327C320.396 275.532 322.523 259.049 322.522 233.665L322.531 186.746C322.555 180.806 323.635 173.035 315.437 172.789C306.109 172.508 296.71 172.73 287.374 172.731L208.346 172.723C204.521 172.714 200.29 172.219 196.529 172.732ZM158.731 201.554C153.6 201.879 149.175 203.389 145.702 207.354C128.6 226.883 160.788 259.71 184.085 263.287C183.256 259.962 182.531 256.541 181.368 253.316L181.368 221.257L164.339 221.28C161.303 221.285 155.438 222.349 153.039 219.985C150.423 217.407 152.044 213.637 155.409 213.151C158.309 212.732 161.5 212.979 164.44 212.982L181.368 213.009C181.366 209.195 181.287 205.366 181.368 201.554L158.731 201.554ZM330.779 201.554L330.779 213.009L348.647 213C351.961 212.997 357.102 212.015 359.775 214.568C362.434 217.106 360.507 220.642 357.327 221.143C354.055 221.658 350.441 221.307 347.124 221.28L330.779 221.257L330.787 240.22C330.784 248.283 330.517 255.42 328.564 263.287C331.349 262.775 333.956 261.993 336.6 260.99C340.074 259.529 343.487 258.022 346.693 256.019C358.893 248.399 376.67 227.057 369.964 211.378C363.998 197.43 343.427 201.572 330.779 201.554ZM266.91 318.406C258.969 319.283 252.626 319.394 244.682 318.406L244.698 367.197C244.694 368.554 244.002 373.462 244.409 374.228L244.682 374.284L267.829 374.284L267.823 336.77C267.822 333.95 268.844 319.908 267.491 318.351L266.91 318.406ZM207.261 382.73L207.261 434.08L305.568 434.08L305.568 415.711L261.188 415.711C257.672 415.736 249.827 416.241 246.85 415.619C243.388 414.896 241.348 410.633 244.622 408.157C247.581 405.92 262.082 407.254 266.208 407.254L305.568 407.252C305.58 399.27 304.862 390.605 305.568 382.73C294.631 382.587 283.677 382.731 272.738 382.732L207.261 382.73Z"/>
	<path fill="#54BAB9" transform="scale(2 2)" d="M378.842 191.212C375.488 191.608 372.808 187.868 375.108 185.009C377.194 182.417 426.01 168.685 431.873 168.245C434.871 167.304 437.681 170.565 436.029 173.378C434.201 176.492 427.776 177.172 424.651 178.04L407.273 182.971C397.803 185.616 388.384 188.901 378.842 191.212Z"/>
	<path fill="#54BAB9" transform="scale(2 2)" d="M133.976 192.089C130.716 192.67 126.655 190.636 123.555 189.741L101.269 183.072C96.6305 181.653 66.0915 176.325 78.0509 168.245C82.2565 168.08 86.9971 170.329 90.9699 171.531L111.899 177.848C118.729 179.854 127.867 181.678 134.232 184.38C138.238 186.082 137.562 190.56 133.976 192.089Z"/>
	<path fill="#54BAB9" transform="scale(2 2)" d="M252.432 189.912C249.727 187.12 248.472 182.507 253.69 181.582C257.189 181.555 271.465 180.024 267.654 187.678C267.02 188.951 265.879 189.474 264.6 189.912C260.65 190.228 256.373 190.325 252.432 189.912Z"/>
	<path fill="#54BAB9" transform="scale(2 2)" d="M308.538 189.912C301.57 190.302 287.479 190.523 280.461 189.934C274.301 189.417 273.823 182.825 279.474 181.582C285.255 181.464 291.054 181.576 296.837 181.585C299.885 181.589 314.782 180.009 311.905 186.632C311.112 188.456 310.385 189.199 308.538 189.912Z"/>
	<path fill="#54BAB9" transform="scale(2 2)" d="M247.726 233.989C241.819 234.198 234.489 215.831 234.904 214.426C235.359 212.883 236.623 212.227 237.977 211.56C241 211.308 241.804 212.328 243.291 214.939C246.424 220.438 255.159 230.318 247.726 233.989Z"/>
	<path fill="#54BAB9" transform="scale(2 2)" d="M265.772 233.989C253.69 233.362 269.569 212.106 271.999 211.56C283.918 213.009 268.179 232.749 265.772 233.989Z"/>
	<path fill="#9ED2C6" transform="scale(2 2)" d="M233.561 245.874C231.279 246.133 202.48 237.256 214.544 230.276C216.561 230.152 245.572 239.122 233.561 245.874Z"/>
	<path fill="#54BAB9" transform="scale(2 2)" d="M280.857 245.874C278.876 246.42 276.891 245.525 275.917 243.678C273.032 238.207 291.787 231.527 294.939 230.276C297.089 230.107 298.886 230.594 300.017 232.683C302.77 237.764 284.868 244.037 280.857 245.874Z"/>
	<path fill="#9ED2C6" transform="scale(2 2)" d="M240.414 267.067C237.551 263.363 231.302 256.469 237.977 253.316C243.808 253.044 242.779 259.808 248.536 262.551C264.746 270.274 268.341 254.306 271.973 253.243C273.906 252.678 276.356 254.855 276.72 256.631C277.468 260.283 273.988 264.269 271.999 267.067C274.618 269.75 282.445 275.981 282.95 279.359C283.684 284.279 278.882 285.386 274.645 281.288C270.898 277.454 267.555 273.611 262.405 271.715C257.929 272.736 254.232 272.685 249.741 271.715C243.668 273.704 236.327 284.067 233.175 283.868C221.649 283.142 238.065 268.867 240.414 267.067Z"/>
	<path fill="#54BAB9" transform="scale(2 2)" d="M432.643 285.27C430.149 285.333 408.132 278.37 403.702 277.095C398.85 275.698 377.299 271.213 375.491 267.284C374.266 264.622 376.561 262.658 378.842 261.817C382.515 262.004 386.283 263.58 389.811 264.573L411.57 270.841C418.445 272.861 425.528 274.412 432.267 276.845C436.988 278.549 437.771 283.117 432.643 285.27Z"/>
	<path fill="#9ED2C6" transform="scale(2 2)" d="M80.5551 285.27C76.1723 284.422 74.1181 278.848 79.0417 276.962C83.5038 275.253 88.4618 274.302 93.0536 272.915C105.401 269.186 119.944 264.701 132.45 261.817C135.64 261.561 137.614 264.942 136.272 267.794C134.898 270.714 123.065 272.98 120.11 273.798L94.6249 281.036C89.8889 282.397 85.1527 283.463 80.5551 285.27Z"/>
	<path fill="#54BAB9" transform="scale(2 2)" d="M378.842 374.284C374.759 374.314 360.488 354.642 357.12 350.678C350.392 342.76 343.225 335.115 336.783 326.971C333.917 323.347 333.377 320.363 338.404 319.25C342.295 318.734 344.016 322.811 346.19 325.349L375.86 360.472C378.373 363.432 388.471 373.646 378.842 374.284Z"/>
	<path fill="#9ED2C6" transform="scale(2 2)" d="M135.687 374.284C132.629 375.076 129.183 373.016 130.543 369.446C131.231 367.639 142.274 354.509 144.657 351.544L159.217 333.169C162.109 329.506 166.841 321.271 170.929 319.25C183.234 318.051 171.95 330.551 169.644 333.56C166.033 338.271 139.753 372.937 135.687 374.284Z"/>
</svg>
